<svg width="108" height="60" viewBox="0 0 108 60" fill="none" xmlns="http://www.w3.org/2000/svg">
<mask id="path-1-inside-1_390_4219" fill="white">
<rect x="59" y="34" width="42" height="16" rx="1"/>
</mask>
<rect x="59" y="34" width="42" height="16" rx="1" stroke="#334155" stroke-width="4" mask="url(#path-1-inside-1_390_4219)"/>
<mask id="path-2-inside-2_390_4219" fill="white">
<rect x="7" y="10" width="42" height="16" rx="1"/>
</mask>
<rect x="7" y="10" width="42" height="16" rx="1" stroke="#334155" stroke-width="4" mask="url(#path-2-inside-2_390_4219)"/>
<rect x="1" y="1" width="106" height="58" rx="4" stroke="#334155" stroke-width="2"/>
<rect x="59" y="24" width="42" height="2" rx="1" fill="#334155"/>
<rect x="59" y="20" width="42" height="2" rx="1" fill="#334155"/>
<rect x="59" y="16" width="42" height="2" rx="1" fill="#334155"/>
<rect x="59" y="10" width="28" height="4" rx="1" fill="#334155"/>
<rect x="7" y="48" width="42" height="2" rx="1" fill="#334155"/>
<rect x="7" y="44" width="42" height="2" rx="1" fill="#334155"/>
<rect x="7" y="40" width="42" height="2" rx="1" fill="#334155"/>
<rect x="7" y="34" width="28" height="4" rx="1" fill="#334155"/>
</svg>
